<svg version="1.1" id="Layer_1" xmlns="http://www.w3.org/2000/svg" xmlns:xlink="http://www.w3.org/1999/xlink" x="0px" y="0px"
	 width="100%" viewBox="0 0 78 70" enable-background="new 0 0 78 70" xml:space="preserve">

<path fill="#3C78D8" opacity="1.000000" stroke="none" 
	d="
M59.540508,60.760178 
	C56.449913,61.797512 53.704025,62.657665 50.958138,63.517818 
	C50.533543,63.032684 50.108948,62.547550 49.684353,62.062412 
	C50.593254,60.983612 51.309685,59.601997 52.445438,58.880108 
	C56.648006,56.208939 61.397896,54.244728 65.170273,51.091469 
	C69.494446,47.476978 69.132797,42.815025 64.691521,39.324394 
	C61.022434,36.440670 56.878799,34.160736 52.992706,31.643869 
	C46.095222,40.640114 37.630085,43.318329 26.040417,45.535236 
	C26.970297,51.901051 27.941351,58.278252 28.771965,64.673691 
	C28.850828,65.280914 28.028145,66.578308 27.661570,66.564407 
	C26.494139,66.520164 24.938251,66.370056 24.261242,65.610901 
	C21.875542,62.935734 19.784637,59.996521 17.600433,57.143288 
	C16.497887,55.703030 15.435143,54.232304 14.310096,52.715622 
	C9.984484,57.670292 14.410852,64.482925 7.963494,67.790611 
	C8.406715,63.314991 8.407124,58.733158 9.446360,54.400501 
	C10.158026,51.433514 10.031745,49.739864 7.495344,47.797047 
	C5.356618,46.158836 3.911531,43.615063 2.159415,41.472122 
	C2.510241,41.008358 2.861067,40.544594 3.211893,40.080830 
	C6.188138,40.428204 9.164382,40.775578 12.683463,41.186306 
	C15.910776,29.978464 19.090757,18.935005 22.270737,7.891545 
	C22.863777,7.865020 23.456818,7.838494 24.049858,7.811969 
	C24.684330,10.140306 25.806536,12.456247 25.866083,14.799196 
	C26.085588,23.435858 25.953276,32.081463 25.953276,41.290077 
	C35.285603,39.261215 43.723728,37.086403 49.848537,29.477854 
	C45.875282,25.688562 42.175190,21.440001 45.165359,15.629278 
	C46.212254,13.594873 49.110462,11.328393 51.197037,11.295275 
	C54.222328,11.247257 57.132641,13.526440 56.917591,17.268639 
	C56.714252,20.807129 55.873905,24.309015 55.273403,28.080284 
	C58.805931,30.563812 62.624481,33.227547 66.421196,35.922050 
	C74.327309,41.532970 71.590149,53.016788 64.469383,57.797813 
	C62.986477,58.793461 61.415565,59.658028 59.540508,60.760178 
M18.756458,41.996719 
	C20.143040,41.894012 21.529623,41.791306 22.373386,41.728809 
	C22.373386,35.404583 22.373386,29.697809 22.373386,23.991034 
	C19.792576,29.231024 18.122164,34.562714 16.631584,39.944218 
	C16.486599,40.467659 17.452208,41.298717 18.756458,41.996719 
M15.588585,46.102287 
	C15.383635,46.881660 14.741682,48.003643 15.042089,48.386810 
	C17.716640,51.798199 20.557718,55.079033 24.341736,59.577736 
	C23.690897,54.213791 23.202322,50.187149 22.696516,46.018517 
	C20.324692,46.018517 18.347490,46.018517 15.588585,46.102287 
M48.002201,19.365501 
	C48.856094,21.525072 49.709988,23.684645 50.563881,25.844217 
	C52.366714,23.762680 53.465981,21.835661 53.349438,19.985214 
	C53.243443,18.302284 51.816196,16.702568 50.971375,15.066166 
	C49.981819,16.230312 48.992264,17.394459 48.002201,19.365501 
z"/>
</svg>